<svg xmlns="http://www.w3.org/2000/svg" xmlns:xlink="http://www.w3.org/1999/xlink" width="199.4" height="187.3" viewBox="0 0 199.4 187.3">
  <defs>
    <style>
      .cls-1 {
        fill: none;
      }

      .cls-2 {
        isolation: isolate;
      }

      .cls-3 {
        fill: #fdaea9;
      }

      .cls-4 {
        fill: #fc7980;
      }

      .cls-5 {
        fill: #202b40;
      }

      .cls-6 {
        fill: #889dc4;
      }

      .cls-19, .cls-20, .cls-24, .cls-7 {
        fill: #2345ad;
      }

      .cls-8 {
        clip-path: url(#clip-path);
      }

      .cls-9 {
        fill: #375dcc;
      }

      .cls-10 {
        fill: #638aff;
      }

      .cls-11 {
        fill: #284c7c;
      }

      .cls-12 {
        fill: #3b6ca5;
      }

      .cls-13 {
        fill: #103458;
      }

      .cls-14, .cls-16, .cls-17 {
        fill: #fff;
      }

      .cls-14, .cls-18 {
        opacity: 0.35;
      }

      .cls-15 {
        fill: #022c94;
      }

      .cls-17 {
        opacity: 0.5;
      }

      .cls-19 {
        opacity: 0.15;
      }

      .cls-19, .cls-20, .cls-24 {
        mix-blend-mode: screen;
      }

      .cls-20 {
        opacity: 0.45;
      }

      .cls-21 {
        fill: #afb4d2;
      }

      .cls-22 {
        fill: #d7dbf0;
      }

      .cls-23 {
        fill: #ffd2d1;
      }

      .cls-24 {
        opacity: 0.25;
      }

      .cls-25 {
        fill: #ffebc0;
      }

      .cls-26 {
        fill: #f13800;
      }

      .cls-27 {
        fill: #ff7343;
      }

      .cls-28 {
        fill: #fdb060;
      }

      .cls-29 {
        fill: #fff690;
      }
    </style>
    <clipPath id="clip-path" transform="translate(23.97)">
      <path class="cls-1" d="M99.4,27.16l-20.66,4a1.73,1.73,0,0,0-1.33,1.25,3.59,3.59,0,0,1-2.88,2.35A3.64,3.64,0,0,1,71,33.7a1.71,1.71,0,0,0-1.7-.67l-20.66,4a1.58,1.58,0,0,0-1.25,1.86L66.12,135.2A1.58,1.58,0,0,0,68,136.45l50.79-9.89a1.58,1.58,0,0,0,1.24-1.85l-18.75-96.3A1.58,1.58,0,0,0,99.4,27.16Z"/>
    </clipPath>
  </defs>
  <g class="cls-2">
    <g id="Capa_2" data-name="Capa 2">
      <g id="Layer_1" data-name="Layer 1">
        <g>
          <g>
            <path class="cls-3" d="M79.55,161.64l.16,20.2-1,.09-5.72.51-27.92,2.5s6.74-22.89,6.7-25.85-3.16-28-.33-37,10.05-16.25,10.78-16.66S91,120.45,94.4,125,96.17,150.72,79.55,161.64Z" transform="translate(23.97)"/>
            <path class="cls-4" d="M79.07,160.39l-.32,21.54-5.72.51c.06-4.29.31-22.92.23-23.35Z" transform="translate(23.97)"/>
            <polygon class="cls-4" points="92.46 158 92.96 170.44 94.74 157.76 92.46 158"/>
            <path class="cls-4" d="M94.4,125C91,120.45,63,105,62.26,105.4s-8,7.62-10.78,16.67c-1.46,4.67-1.33,13.6-.86,21.55a13.76,13.76,0,0,0,6.8,4.8c2.83.66,4.84,8.23,4.84,8.23s6.72-3.6,9.39-4.39,10,5.19,10,5.19,7.89-3.83,12.2-15.6c.5-1.34.94-2.64,1.33-3.89C96.42,132,95.89,127,94.4,125Z" transform="translate(23.97)"/>
          </g>
          <g>
            <g>
              <rect class="cls-5" x="54.8" y="28.19" width="57.98" height="108.22" rx="6.6" transform="translate(9.78 17.54) rotate(-11.02)"/>
              <path class="cls-6" d="M75.18,31.88a1.19,1.19,0,1,1-1.4-.94A1.19,1.19,0,0,1,75.18,31.88Z" transform="translate(23.97)"/>
              <path class="cls-7" d="M99.4,27.16l-20.66,4a1.73,1.73,0,0,0-1.33,1.25,3.59,3.59,0,0,1-2.88,2.35A3.64,3.64,0,0,1,71,33.7a1.71,1.71,0,0,0-1.7-.67l-20.66,4a1.58,1.58,0,0,0-1.25,1.86L66.12,135.2A1.58,1.58,0,0,0,68,136.45l50.79-9.89a1.58,1.58,0,0,0,1.24-1.85l-18.75-96.3A1.58,1.58,0,0,0,99.4,27.16Z" transform="translate(23.97)"/>
            </g>
            <g class="cls-8">
              <path class="cls-9" d="M-1,102S35.52,80.09,63.89,74.58,109.57,78,130.33,66,175,41.06,175,41.06l-5.18,61.8-151.15,39Z" transform="translate(23.97)"/>
              <path class="cls-9" d="M-19,92.64S38.28,62.6,51.31,63s50.13-2.6,71.4-12.83,52.73-25.64,52.73-25.64L171.89,7.71s-67.06,36.53-81.72,40.2-46,2.21-64.9,10.21S-24,80.93-24,80.93Z" transform="translate(23.97)"/>
              <path class="cls-10" d="M4.38,109.29s4.08-8.18,6.5-6.63,2.7,2.41,2.7,2.41,3-5.24,4.93-4.8a8.92,8.92,0,0,1,2.72,1l3.36-2s2.31-.05,3.33-.05,4.8-2.35,6.18-2,17.45-.77,17.45-.77S49,89.27,57.47,88.94s11.16,1.77,11.29,3.46c0,0,2.46-1.89,4.66-1.51s3.82,4,3.82,4,3-2.81,4.12-2.73a5.68,5.68,0,0,1,2.29.87s2.84-9.35,10.37-9.1,10.37,4.45,10.37,4.45,4.18-1.42,6.45-1.15a6.44,6.44,0,0,1,3.52,1.44s3.17-3,4.74-2.14S121.82,88,121.82,88a37.61,37.61,0,0,1,11.08-7.51c6-2.39,9.23.12,9.23.12a5.68,5.68,0,0,1,3.06-.9c1.54.1,3.48,1.75,3.48,1.75s-.46-7,3.6-8a12,12,0,0,1,6.56-.07s3.13-2.13,3.75-2,11.23,24.41,6.72,31.36-96.14,29.85-96.14,29.85L11,137.13Z" transform="translate(23.97)"/>
              <g>
                <path class="cls-11" d="M160.8,103.81s-.12.36-.37,1c-.43,1.18-1.21,3.31-2.27,6.07-.1.28-.21.56-.32.85-1.27,3.27-2.87,7.3-4.68,11.59-.5,1.18-1,2.38-1.54,3.59-5.28,12.13-11.92,25.27-17.25,29.15-10.63,7.73-48.64,15.14-62.65,14.83-9.83-.21-26-3.45-38.47-9.54-1.7-.83-3.33-1.72-4.88-2.65a35.58,35.58,0,0,1-8.27-6.68c-5.61-6.36-8.59-14.25-10.17-20.28a56.79,56.79,0,0,1-1.68-9.38C8.67,122,23.92,103.65,30.72,96v0a31,31,0,0,1,3.1-3.25A15.34,15.34,0,0,1,37,91.22c.45-.17.74-.26.74-.26S84,111.48,86.54,112s31.21-26.71,32.8-26.82,7.12,1.24,9.22,1.64S160.8,103.81,160.8,103.81Z" transform="translate(23.97)"/>
                <path class="cls-12" d="M119.34,85.18c-1.59.11-30.27,27.34-32.8,26.82S37.73,91,37.73,91s-.29.09-.74.26c5.06,5,19.59,19.32,32.17,31.32L43,104.36s6.25,13,14.36,20.41,33.33,32.28,37.1,30.2,23.28-55.69,23.28-55.69C120.21,93.17,119.34,85.18,119.34,85.18Z" transform="translate(23.97)"/>
                <path class="cls-13" d="M25.49,128.48l1.76-20L9.93,131.77a56.79,56.79,0,0,1-1.68-9.38C8.67,122,23.92,103.65,30.72,96v0L37,91.22Z" transform="translate(23.97)"/>
                <path class="cls-13" d="M32.7,128.15l.55,33.23c-1.7-.83-3.33-1.72-4.88-2.65Z" transform="translate(23.97)"/>
                <path class="cls-13" d="M143.86,97.87c-.72-.2,7.9,7.43,14.3,13-.1.28-.21.56-.32.85-7.73-5.51-19.38-13.86-21.29-15.43-2.89-2.41-15.62-11-17.21-11.15,1.6-.11,7.12,1.24,9.22,1.64s32.24,17,32.24,17-.12.36-.37,1C153.39,101.83,144.54,98.06,143.86,97.87Z" transform="translate(23.97)"/>
                <path class="cls-13" d="M153.16,123.35c-.5,1.18-1,2.38-1.54,3.59-3.48-5.37-9.44-14.18-9.44-14.18Z" transform="translate(23.97)"/>
              </g>
            </g>
            <g>
              <rect class="cls-14" x="91.87" y="95.89" width="21.02" height="24.39" transform="matrix(0.98, -0.19, 0.19, 0.98, 5.19, 21.57)"/>
              <g>
                <polygon class="cls-15" points="117.27 101.06 116.69 101.53 116.67 100.79 116.05 100.38 116.75 100.13 116.95 99.41 117.4 100 118.14 99.97 117.72 100.58 117.98 101.28 117.27 101.06"/>
                <polygon class="cls-15" points="120.1 100.51 119.52 100.98 119.5 100.23 118.88 99.83 119.58 99.58 119.78 98.86 120.23 99.45 120.97 99.42 120.55 100.03 120.81 100.73 120.1 100.51"/>
                <polygon class="cls-15" points="122.93 99.96 122.35 100.43 122.33 99.68 121.71 99.28 122.41 99.03 122.61 98.31 123.06 98.9 123.8 98.87 123.38 99.48 123.64 100.18 122.93 99.96"/>
                <polygon class="cls-15" points="125.76 99.41 125.18 99.88 125.16 99.13 124.54 98.72 125.24 98.48 125.44 97.76 125.89 98.35 126.63 98.31 126.21 98.93 126.47 99.62 125.76 99.41"/>
                <polygon class="cls-16" points="128.59 98.86 128.01 99.33 127.99 98.58 127.37 98.17 128.07 97.93 128.27 97.21 128.72 97.8 129.47 97.76 129.04 98.38 129.31 99.07 128.59 98.86"/>
              </g>
              <g>
                <rect class="cls-16" x="93.28" y="103.96" width="13.04" height="0.93" transform="translate(5.84 21.01) rotate(-11.02)"/>
                <rect class="cls-16" x="93.62" y="105.65" width="14.13" height="0.93" transform="translate(5.54 21.21) rotate(-11.02)"/>
                <rect class="cls-16" x="93.99" y="107.72" width="11.12" height="0.93" transform="translate(5.12 21.03) rotate(-11.02)"/>
                <rect class="cls-16" x="94.32" y="109.29" width="13.39" height="0.93" transform="translate(4.84 21.34) rotate(-11.02)"/>
                <rect class="cls-16" x="94.69" y="111.35" width="10.51" height="0.93" transform="translate(4.43 21.17) rotate(-11.02)"/>
                <rect class="cls-16" x="95.35" y="114.48" width="15.22" height="0.93" transform="translate(3.89 21.8) rotate(-11.02)"/>
                <rect class="cls-16" x="95.72" y="116.58" width="11.91" height="0.93" transform="translate(3.46 21.6) rotate(-11.02)"/>
              </g>
            </g>
            <g>
              <path class="cls-16" d="M68.29,105.67a1.79,1.79,0,1,1-2.11-1.41A1.8,1.8,0,0,1,68.29,105.67Z" transform="translate(23.97)"/>
              <path class="cls-17" d="M69.8,113.44A1.79,1.79,0,1,1,67.7,112,1.79,1.79,0,0,1,69.8,113.44Z" transform="translate(23.97)"/>
              <path class="cls-17" d="M71.31,121.21a1.79,1.79,0,1,1-2.1-1.42A1.79,1.79,0,0,1,71.31,121.21Z" transform="translate(23.97)"/>
            </g>
            <g class="cls-18">
              <path class="cls-16" d="M77.69,112.3a11.58,11.58,0,1,1,9.15-13.58A11.59,11.59,0,0,1,77.69,112.3ZM73.31,89.82a11.32,11.32,0,1,0,13.28,9A11.34,11.34,0,0,0,73.31,89.82Z" transform="translate(23.97)"/>
              <path class="cls-16" d="M76.91,108.28a7.48,7.48,0,1,1,5.91-8.78A7.49,7.49,0,0,1,76.91,108.28ZM74.09,93.84a7.23,7.23,0,1,0,8.48,5.71A7.24,7.24,0,0,0,74.09,93.84Z" transform="translate(23.97)"/>
            </g>
            <g>
              <g>
                <rect class="cls-16" x="71.75" y="76.22" width="12.31" height="1.24" transform="translate(10.71 16.31) rotate(-11.02)"/>
                <rect class="cls-16" x="84.82" y="74.58" width="3.03" height="1.24" transform="translate(11.18 17.89) rotate(-11.02)"/>
                <rect class="cls-16" x="88.58" y="73.68" width="4.7" height="1.24" transform="translate(11.44 18.76) rotate(-11.02)"/>
                <rect class="cls-16" x="74.26" y="78.52" width="5.79" height="1.24" transform="translate(10.26 16.21) rotate(-11.02)"/>
                <rect class="cls-16" x="80.64" y="76.77" width="11.05" height="1.24" transform="translate(10.76 17.9) rotate(-11.02)"/>
                <rect class="cls-16" x="73.37" y="79.95" width="14.99" height="1.24" transform="translate(10.05 16.95) rotate(-11.02)"/>
                <rect class="cls-16" x="89" y="77.96" width="4.24" height="1.24" transform="translate(10.62 18.87) rotate(-11.02)"/>
                <rect class="cls-16" x="76.82" y="82.64" width="2.68" height="1.24" transform="translate(9.49 16.48) rotate(-11.02)"/>
                <rect class="cls-16" x="80.71" y="81.16" width="10.06" height="1.24" transform="translate(9.91 17.9) rotate(-11.02)"/>
                <rect class="cls-16" x="75.4" y="71.15" width="12.84" height="2.12" transform="translate(11.67 16.98) rotate(-11.02)"/>
              </g>
              <g>
                <g>
                  <circle class="cls-19" cx="79.52" cy="58.15" r="9.57" transform="translate(13.3 97.81) rotate(-59.92)"/>
                  <circle class="cls-20" cx="103.48" cy="58.15" r="7.69"/>
                </g>
                <g>
                  <circle class="cls-21" cx="79.52" cy="58.15" r="5.76" transform="translate(5.48 48.14) rotate(-30.35)"/>
                  <path class="cls-22" d="M73.77,58.55a5.12,5.12,0,1,0,6.47-6.11,5.65,5.65,0,0,0-1.83.06A5.76,5.76,0,0,0,73.77,58.55Z" transform="translate(23.97)"/>
                  <ellipse class="cls-16" cx="78.41" cy="56.56" rx="3.79" ry="3.47" transform="translate(6.07 65.1) rotate(-40.87)"/>
                  <path class="cls-21" d="M78.79,59.9s.4-.42.76-.15.26.67-.12.92Z" transform="translate(23.97)"/>
                  <path class="cls-22" d="M79.61,59.94a.56.56,0,1,1-.74-.1A.52.52,0,0,1,79.61,59.94Z" transform="translate(23.97)"/>
                  <path class="cls-22" d="M81.94,56.31a.49.49,0,0,0-.15.61.37.37,0,0,0,.52.25Z" transform="translate(23.97)"/>
                  <path class="cls-16" d="M82.61,56.61a.45.45,0,0,1-.3.56c-.21,0-.43-.14-.48-.41a.41.41,0,1,1,.78-.15Z" transform="translate(23.97)"/>
                  <path class="cls-21" d="M81.73,60.24a.27.27,0,0,1-.08.38.29.29,0,0,1-.39,0,.27.27,0,0,1,.09-.37A.28.28,0,0,1,81.73,60.24Z" transform="translate(23.97)"/>
                  <path class="cls-21" d="M77.27,62.18c-.06.11-.24.14-.42.06s-.27-.24-.21-.36.24-.15.42-.07A.32.32,0,0,1,77.27,62.18Z" transform="translate(23.97)"/>
                  <path class="cls-22" d="M79.73,62.84a.25.25,0,1,1-.27-.14A.23.23,0,0,1,79.73,62.84Z" transform="translate(23.97)"/>
                  <path class="cls-16" d="M82.16,53.94c.08.11.09.25,0,.3s-.19,0-.28-.1-.09-.24,0-.29S82.08,53.83,82.16,53.94Z" transform="translate(23.97)"/>
                  <path class="cls-22" d="M80.86,54.75a.29.29,0,0,1-.07.38.28.28,0,0,1-.35-.16.29.29,0,0,1,.07-.38A.28.28,0,0,1,80.86,54.75Z" transform="translate(23.97)"/>
                </g>
              </g>
            </g>
          </g>
          <g>
            <path class="cls-3" d="M71,138.24c1.88,13.11-7.37,19-12.08,20.42a17.21,17.21,0,0,0-7.44,4.68s-.1-5.37-1.11-7.06c-.86-1.45-7.1-18.45-8.29-28.81a21,21,0,0,1-.11-4.62,25.19,25.19,0,0,1,3.52-7.56c2.53-3.6,4.47-6.14,5.13-9s.59-12.92.59-12.92a6.88,6.88,0,0,1,2.16,1c1.73,1.09,4.11,3.34,5.63,7.9,2.61,7.85.19,13.45-1.48,15.26l.05,5.11A18.33,18.33,0,0,1,71,138.24Z" transform="translate(23.97)"/>
            <path class="cls-16" d="M64.6,139.91a.83.83,0,0,1-1.63.32.85.85,0,0,1,.66-1A.84.84,0,0,1,64.6,139.91Z" transform="translate(23.97)"/>
            <circle class="cls-16" cx="85.33" cy="143.57" r="0.36"/>
            <path class="cls-4" d="M62.93,156.45a20.25,20.25,0,0,1-7,2.48A10,10,0,0,0,62.93,156.45Z" transform="translate(23.97)"/>
            <polygon class="cls-4" points="75.32 123.51 80.92 122.16 80.98 122.71 75.32 123.51"/>
            <path class="cls-4" d="M51.57,115.27a14.41,14.41,0,0,0,5.07,1.9l.11.53A12.57,12.57,0,0,1,51.57,115.27Z" transform="translate(23.97)"/>
            <path class="cls-16" d="M53.32,94.37c-.91-.19-1.62-.27-1.62-.27s.19,4.12.13,8.48a20.82,20.82,0,0,1-3.69,10.63c-1.36,1.88-3.43,3.7-4.71,7a25.81,25.81,0,0,0-1.4,7.28,21,21,0,0,1-.11-4.62,25.19,25.19,0,0,1,3.52-7.56c2.53-3.6,4.47-6.14,5.13-9s.59-12.92.59-12.92A6.88,6.88,0,0,1,53.32,94.37Z" transform="translate(23.97)"/>
          </g>
          <g>
            <path class="cls-3" d="M150.73,169.49s-20.11,14.07-28.49,17.81c0,0-13.15-6.26-16-7.33s-13.34-3.06-14.81-4.39-14.77-13.51-21-17.56c0,0-1.78-2.88.88-4.82s10.13-1,13.74,2,5.59,3.77,6.63,4,7.41-.44,7-2.39-4.39-10.06-5.51-12.68-21.6-40.29-21.28-41.77,1.61-3.15,4.34-3.68,8.17,8.72,10.22,12,9.73,16.71,9.73,16.71h0c.09-.22,2.23-4.81,8.3-3a10.23,10.23,0,0,1,6.3-4.06c3.93-.56,5.72.3,5.72.3a10.75,10.75,0,0,1,6.59-2.5c1,0,2.57,1.54,4.46,3.82,5.41,6.49,13.14,19.25,14.69,21.79,2.08,3.44,4.63,17.51,5.2,19.42A46.83,46.83,0,0,0,150.73,169.49Z" transform="translate(23.97)"/>
            <path class="cls-16" d="M127.57,121.84c-1-1-2.25-2.09-2.56-2.36-.57-.5-1.12-1.27-3.68-.9a8.59,8.59,0,0,0-4.58,2.77,13.6,13.6,0,0,0-6-.71c-3.3.37-6,4.2-6,4.2a10.08,10.08,0,0,0-3.88-.53c-2.55,0-4.56,2.83-4.67,3,.09-.22,2.23-4.81,8.3-3a10.23,10.23,0,0,1,6.3-4.06c3.93-.56,5.72.3,5.72.3a10.75,10.75,0,0,1,6.59-2.5C124.06,118.05,125.68,119.56,127.57,121.84Z" transform="translate(23.97)"/>
            <path class="cls-23" d="M74.65,106.7s-2.92-5-2.89-5.51a5,5,0,0,1,3.44-3.1c1.84-.22,4.84,4.45,5.35,5.3S76.77,106.49,74.65,106.7Z" transform="translate(23.97)"/>
            <path class="cls-23" d="M69.82,158.08s-1.49-2.82.54-4.16,6.79.91,7.34,1.34-1.58,4.91-2.62,6.18C75.08,161.44,71.13,158.9,69.82,158.08Z" transform="translate(23.97)"/>
            <path class="cls-4" d="M93.11,160.62a26.16,26.16,0,0,0,4.46.41c1.53-.09,2.14-.08,2.14-.08S98.08,162.28,93.11,160.62Z" transform="translate(23.97)"/>
            <path class="cls-4" d="M99.42,157.7l.81,2.44A2.3,2.3,0,0,0,99.42,157.7Z" transform="translate(23.97)"/>
            <path class="cls-4" d="M81.4,165.26a10.28,10.28,0,0,1,1.18-3A9.42,9.42,0,0,1,81.4,165.26Z" transform="translate(23.97)"/>
            <path class="cls-4" d="M82.46,166.2a11.43,11.43,0,0,1,1.87-4.26S83.33,165.55,82.46,166.2Z" transform="translate(23.97)"/>
            <path class="cls-4" d="M92.13,175.31c.12-.43-.57-1.85,1.29-1.33a8.36,8.36,0,0,1,3.43,2.36Z" transform="translate(23.97)"/>
            <path class="cls-4" d="M104.31,127.08a4.72,4.72,0,0,1,1.57.44,11.06,11.06,0,0,1,1,2.3Z" transform="translate(23.97)"/>
            <path class="cls-4" d="M115.48,124.91c.4.66,1.53,1.25,1.61.63s.13-1.44.13-1.44Z" transform="translate(23.97)"/>
            <path class="cls-4" d="M80.39,113a8.93,8.93,0,0,1,3-1.81C84.09,111.2,81.1,112.79,80.39,113Z" transform="translate(23.97)"/>
            <path class="cls-4" d="M86,124.25s1.88-1,2.81-1.49a4.21,4.21,0,0,1,1.8-.42Z" transform="translate(23.97)"/>
            <path class="cls-4" d="M86,122.84a7.76,7.76,0,0,1,2-1.2C88.22,121.65,87,122.49,86,122.84Z" transform="translate(23.97)"/>
            <path class="cls-16" d="M124.08,136.5a.94.94,0,1,1-1.1-.75A.93.93,0,0,1,124.08,136.5Z" transform="translate(23.97)"/>
            <path class="cls-16" d="M120.47,140.79a.5.5,0,1,1-.58-.39A.5.5,0,0,1,120.47,140.79Z" transform="translate(23.97)"/>
          </g>
          <g>
            <g>
              <g>
                <path class="cls-19" d="M127.62,32.18a19.72,19.72,0,1,1-19.29-10.37A19.73,19.73,0,0,1,127.62,32.18Z" transform="translate(23.97)"/>
                <path class="cls-24" d="M124.17,34A15.81,15.81,0,1,1,108.7,25.7,15.82,15.82,0,0,1,124.17,34Z" transform="translate(23.97)"/>
                <path class="cls-20" d="M122.34,35a13.74,13.74,0,1,1-18.58-5.68,13.44,13.44,0,0,1,5.14-1.54A13.73,13.73,0,0,1,122.34,35Z" transform="translate(23.97)"/>
              </g>
              <g>
                <path class="cls-25" d="M120,35.22a3.43,3.43,0,0,0-.39-1.85c-.42-.76-.81-.75-1.11-1.46a1.77,1.77,0,0,0-1.11-1.1,3,3,0,0,0-1.94-.07,2,2,0,0,1-1-.11,8.92,8.92,0,0,0-1.68-1.21c-1.44-.77-2.13-.22-3.74.33-.79.27-1.36.46-2,.69-.27,0-.83-.08-1.19-.15s-1.18-.24-2.71.8a3.81,3.81,0,0,0-1.46,2.8,17.44,17.44,0,0,0-1.14,1.55c-.28,1-1,2.78-1.4,4.46a6.32,6.32,0,0,0-.14,1l-.22.46a5.5,5.5,0,0,0-.5,1.05c-.17.51.14,1,.39,1.61s.51.62.84.82a1.1,1.1,0,0,1,.23.21,13.13,13.13,0,0,0,.83,2.22,9.46,9.46,0,0,0,2.23,2.85,4.29,4.29,0,0,1,.08.83,1.55,1.55,0,0,0,.84,1.42c.52.17,1.83.7,1.83.7l0,0,.25.21a3.68,3.68,0,0,0,1.86.79,9.82,9.82,0,0,0,2.25-.51,9.51,9.51,0,0,0,2-1.15c1.11-.33,1.59-1,2.91-1.81s2.14-1.1,3.06-1.72c.37-.09.79-.2,1.2-.33.91-.28,1,0,1.5-.63s.7-.79.58-1.33a6,6,0,0,0-.33-1c-.09-.27-.17-.6-.24-.89l.13-.35c.94-2.43.15-1.83.48-4.14s-.36-2-.85-3.58A7.48,7.48,0,0,1,120,35.22ZM119,33.11c.61,0,.44.8.61,1.32a1.79,1.79,0,0,1,0,.77c-.28-.44-.58-.75-1-1.36a2.69,2.69,0,0,0-.41-.52A1.14,1.14,0,0,1,119,33.11Zm-20,10.79c-.5-.23-.51-.62-.43-1.24A1.42,1.42,0,0,1,99,42a6.13,6.13,0,0,0,.25,1.21s0,.33.17.84ZM103.82,52a1,1,0,0,1-.59-.69,1,1,0,0,1,.07-.58c.18.17.37.34.56.53a4.83,4.83,0,0,0,.64.5A.47.47,0,0,1,103.82,52Zm.65.51c-.13,0,.12-.24.34-.4.09.15.16.29.23.41A2.63,2.63,0,0,1,104.47,52.46Zm5.21.56a3.36,3.36,0,0,1-2.56.34c-.84-.31-1-.48-.79-1a25.42,25.42,0,0,0,3.4.27h.54A3.66,3.66,0,0,1,109.68,53ZM102.52,32.9a.68.68,0,0,0,0-.14A2.77,2.77,0,0,1,104,31a3.85,3.85,0,0,1,1.85-.07c-.37.15-.79.32-1.29.54A6.89,6.89,0,0,0,102.52,32.9Zm18,14.19c-.19.47-.37,1-.92,1a1.73,1.73,0,0,1-.54-.1,2.53,2.53,0,0,0,1.08-1.89C120.43,46.4,120.73,46.7,120.57,47.09Zm-5.34-15.72a1,1,0,0,1,.47-.25c.62-.16.92.1,1.63.25a1.54,1.54,0,0,1,1.06,1.47c0,.22-.09.3-.25.31A11.64,11.64,0,0,0,116,32,5.2,5.2,0,0,1,115.23,31.37Z" transform="translate(23.97)"/>
                <path class="cls-26" d="M119.37,36.94a10.07,10.07,0,1,1-13.2-5.35A10.08,10.08,0,0,1,119.37,36.94Z" transform="translate(23.97)"/>
                <circle class="cls-27" cx="109.08" cy="40.17" r="8.32" transform="translate(45.54 116.69) rotate(-61.39)"/>
                <path class="cls-28" d="M112.69,37.14a5.41,5.41,0,1,1-7.09-2.88A5.42,5.42,0,0,1,112.69,37.14Z" transform="translate(23.97)"/>
                <path class="cls-26" d="M114.09,38.62a.79.79,0,1,1-1-.42A.79.79,0,0,1,114.09,38.62Z" transform="translate(23.97)"/>
                <path class="cls-26" d="M113.34,34.58a.45.45,0,0,1,.08.61.45.45,0,0,1-.6-.11.43.43,0,0,1-.08-.6A.43.43,0,0,1,113.34,34.58Z" transform="translate(23.97)"/>
                <path class="cls-26" d="M114,45.54a.52.52,0,0,1-.58-.06.48.48,0,0,1-.13-.46,1,1,0,0,1,.26-.5,1,1,0,0,1,.47-.3.52.52,0,0,1,.48.08c.23.21.17.64-.13,1A1.17,1.17,0,0,1,114,45.54Zm0-1.07a.93.93,0,0,0-.29.21.78.78,0,0,0-.2.38.27.27,0,0,0,.06.25c.13.12.41,0,.62-.2s.26-.52.14-.63a.31.31,0,0,0-.26,0Z" transform="translate(23.97)"/>
                <path class="cls-28" d="M116.39,41.51c-.06.41-.34.71-.62.67s-.46-.41-.39-.82.34-.72.62-.67S116.45,41.1,116.39,41.51Z" transform="translate(23.97)"/>
                <path class="cls-26" d="M109.1,48.91c-.41,0-.74-.28-.72-.56s.36-.49.78-.47.74.27.73.55S109.52,48.93,109.1,48.91Z" transform="translate(23.97)"/>
                <path class="cls-27" d="M117.9,36.47c.08.18,0,.38-.08.43s-.3,0-.37-.24,0-.38.08-.43S117.83,36.28,117.9,36.47Z" transform="translate(23.97)"/>
                <path class="cls-27" d="M103.81,47.39c.16.13.21.32.12.42s-.28.09-.44,0a.27.27,0,1,1,.32-.38Z" transform="translate(23.97)"/>
                <path class="cls-28" d="M109.87,32.69c.13.08.2.21.15.3s-.19.09-.33,0-.21-.21-.16-.3S109.73,32.61,109.87,32.69Z" transform="translate(23.97)"/>
                <path class="cls-28" d="M107.14,45.32c.48,0,.88-.25.89-.59s-.37-.63-.85-.64-.88.25-.89.59S106.67,45.31,107.14,45.32Z" transform="translate(23.97)"/>
                <path class="cls-28" d="M115.84,35.73a.66.66,0,0,1-.77-.3.79.79,0,0,1-.14-.48.46.46,0,0,1,.21-.4.48.48,0,0,1,.45,0,.84.84,0,0,1,.4.3.79.79,0,0,1,.14.48.51.51,0,0,1-.21.41Zm-.53-1,0,0a.27.27,0,0,0-.11.22.56.56,0,0,0,.1.34c.14.2.39.3.53.19a.29.29,0,0,0,.11-.22.52.52,0,0,0-.11-.33h0a.51.51,0,0,0-.27-.22A.26.26,0,0,0,115.31,34.72Z" transform="translate(23.97)"/>
                <path class="cls-28" d="M103.28,44.86a.45.45,0,0,1-.5-.2.44.44,0,0,1-.09-.31.31.31,0,0,1,.43-.29.44.44,0,0,1,.25.2.44.44,0,0,1,.09.31.32.32,0,0,1-.13.26Zm-.35-.66,0,0a.16.16,0,0,0-.07.14.37.37,0,0,0,.06.22c.1.13.25.19.34.12a.15.15,0,0,0,.07-.14.37.37,0,0,0-.06-.22h0a.34.34,0,0,0-.18-.14A.17.17,0,0,0,102.93,44.2Z" transform="translate(23.97)"/>
                <path class="cls-27" d="M119,42.89a.49.49,0,0,1-.42.54.5.5,0,0,1-.39-.56c0-.3.19-.54.42-.53S119,42.59,119,42.89Z" transform="translate(23.97)"/>
                <path class="cls-27" d="M113.4,49.21a.49.49,0,0,1-.64-.22c-.07-.22.1-.46.39-.56a.49.49,0,0,1,.64.23C113.86,48.87,113.69,49.12,113.4,49.21Z" transform="translate(23.97)"/>
                <path class="cls-26" d="M112.06,32.3c0,.2-.37.31-.73.23s-.61-.29-.57-.5.36-.31.72-.24S112.1,32.09,112.06,32.3Z" transform="translate(23.97)"/>
                <path class="cls-27" d="M112.78,31.9c0,.09-.18.14-.36.1s-.31-.13-.29-.22.17-.14.35-.1S112.8,31.81,112.78,31.9Z" transform="translate(23.97)"/>
                <circle class="cls-16" cx="129.39" cy="37.36" r="0.73"/>
                <path class="cls-16" d="M107.94,38.75a.32.32,0,0,1-.26.38.31.31,0,0,1-.37-.25.32.32,0,0,1,.25-.38A.32.32,0,0,1,107.94,38.75Z" transform="translate(23.97)"/>
              </g>
            </g>
            <g>
              <rect class="cls-16" x="127.7" y="28.73" width="12.39" height="2.38" transform="translate(20.72 26.15) rotate(-11.02)"/>
              <rect class="cls-16" x="128.67" y="34.57" width="6.74" height="1.26" transform="matrix(0.98, -0.19, 0.19, 0.98, 19.67, 25.89)"/>
              <rect class="cls-16" x="136" y="32.47" width="13.65" height="1.26" transform="translate(20.27 27.92) rotate(-11.02)"/>
              <rect class="cls-16" x="129.1" y="36.49" width="12.64" height="1.26" transform="translate(19.37 26.58) rotate(-11.02)"/>
              <rect class="cls-16" x="142.73" y="34.29" width="8.04" height="1.26" transform="translate(20 28.7) rotate(-11.02)"/>
              <rect class="cls-16" x="129.56" y="38.64" width="16.12" height="1.26" transform="translate(19 27.04) rotate(-11.02)"/>
              <rect class="cls-16" x="130.14" y="42.16" width="5.34" height="1.26" transform="translate(18.23 26.18) rotate(-11.02)"/>
              <rect class="cls-16" x="136.09" y="40.73" width="8.09" height="1.26" transform="translate(18.64 27.56) rotate(-11.02)"/>
              <rect class="cls-16" x="144.74" y="39.32" width="5.31" height="1.26" transform="translate(19.05 28.92) rotate(-11.02)"/>
              <rect class="cls-16" x="130.59" y="44.3" width="8.92" height="1.26" transform="translate(17.87 26.65) rotate(-11.02)"/>
              <rect class="cls-16" x="140.37" y="42.95" width="3.28" height="1.26" transform="translate(18.25 27.96) rotate(-11.02)"/>
            </g>
          </g>
          <g>
            <g>
              <path class="cls-29" d="M110.06,87.75l-2.6-12.82.18,0L126,77.47Zm-2.27-12.51,2.45,12.09,15-9.7Z" transform="translate(23.97)"/>
              <path class="cls-29" d="M125.83,77.71l-18.48-2.53.19-.19,11.27-10.92.08.15ZM107.9,75l17.48,2.4L118.74,64.5Z" transform="translate(23.97)"/>
              <path class="cls-29" d="M108,75a.38.38,0,1,1-.45-.3A.38.38,0,0,1,108,75Z" transform="translate(23.97)"/>
              <path class="cls-29" d="M119.15,64.21a.39.39,0,0,1-.31.45.38.38,0,1,1,.31-.45Z" transform="translate(23.97)"/>
              <path class="cls-29" d="M126,77.48a.38.38,0,1,1-.75.14.37.37,0,0,1,.3-.44A.38.38,0,0,1,126,77.48Z" transform="translate(23.97)"/>
            </g>
            <g>
              <path class="cls-29" d="M80.63,35.65a.4.4,0,0,1-.31.45.39.39,0,0,1-.14-.76A.39.39,0,0,1,80.63,35.65Z" transform="translate(23.97)"/>
              <path class="cls-29" d="M77.17,26.23a.38.38,0,0,1-.3.45.39.39,0,0,1-.45-.31.38.38,0,0,1,.75-.14Z" transform="translate(23.97)"/>
              <path class="cls-29" d="M83.36,15.72a.38.38,0,1,1-.45-.3A.38.38,0,0,1,83.36,15.72Z" transform="translate(23.97)"/>
              <path class="cls-29" d="M95.94,18.12a.38.38,0,1,1-.75.15.39.39,0,0,1,.31-.45A.37.37,0,0,1,95.94,18.12Z" transform="translate(23.97)"/>
              <path class="cls-29" d="M109.22,12a.38.38,0,0,1-.3.45.39.39,0,0,1-.45-.3.38.38,0,1,1,.75-.15Z" transform="translate(23.97)"/>
              <path class="cls-29" d="M119.62,11a.39.39,0,0,1-.3.45.38.38,0,1,1,.3-.45Z" transform="translate(23.97)"/>
              <path class="cls-29" d="M125.08.31a.39.39,0,0,1-.31.45.38.38,0,1,1,.31-.45Z" transform="translate(23.97)"/>
              <path class="cls-29" d="M80.2,36l-3.54-9.68,0-.05,6.19-10.58H83l13.09,2.39Zm-3.26-9.66,3.36,9.16L95.57,18.23,83,15.94Z" transform="translate(23.97)"/>
              <polygon class="cls-29" points="119.83 18.26 119.72 18.03 132.89 11.92 132.91 11.92 143.13 10.93 148.55 0.32 148.78 0.44 143.29 11.18 132.96 12.17 119.83 18.26"/>
            </g>
            <g>
              <path class="cls-29" d="M37.41,73.83a.38.38,0,0,1-.3.45.39.39,0,0,1-.45-.31.38.38,0,0,1,.75-.14Z" transform="translate(23.97)"/>
              <circle class="cls-29" cx="75.03" cy="75.3" r="0.38"/>
              <path class="cls-29" d="M45.25,80.83a.38.38,0,0,1-.3.45.38.38,0,1,1-.15-.75A.38.38,0,0,1,45.25,80.83Z" transform="translate(23.97)"/>
              <path class="cls-29" d="M60.49,82.38a.39.39,0,1,1-.45-.3A.39.39,0,0,1,60.49,82.38Z" transform="translate(23.97)"/>
              <polygon class="cls-29" points="84 82.56 75.04 75.47 68.84 81.04 60.92 74 61.09 73.81 68.84 80.7 75.03 75.13 75.11 75.2 84.16 82.35 84 82.56"/>
            </g>
          </g>
          <g>
            <g>
              <rect class="cls-16" x="7.9" y="32.22" width="12.39" height="2.38" transform="translate(58.29 63.51) rotate(168.98)"/>
              <rect class="cls-16" x="14.43" y="36.98" width="6.74" height="1.26" transform="translate(17.1 4.1) rotate(-11.02)"/>
              <rect class="cls-16" x="0.19" y="39.08" width="13.65" height="1.26" transform="translate(16.5 2.07) rotate(-11.02)"/>
              <rect class="cls-16" x="9.07" y="40.03" width="12.64" height="1.26" transform="translate(16.48 3.69) rotate(-11.02)"/>
              <rect class="cls-16" x="0.05" y="42.24" width="8.04" height="1.26" transform="translate(15.84 1.57) rotate(-11.02)"/>
              <rect class="cls-16" x="6.11" y="42.85" width="16.12" height="1.26" transform="matrix(-0.98, 0.19, -0.19, -0.98, 60.34, 83.44)"/>
              <rect class="cls-16" x="17.26" y="44.3" width="5.34" height="1.26" transform="translate(15.74 4.64) rotate(-11.02)"/>
              <rect class="cls-16" x="8.57" y="45.73" width="8.09" height="1.26" transform="translate(15.33 3.27) rotate(-11.02)"/>
              <rect class="cls-16" x="2.7" y="47.14" width="5.31" height="1.26" transform="translate(14.93 1.9) rotate(-11.02)"/>
              <rect class="cls-16" x="14.2" y="47.13" width="8.92" height="1.26" transform="translate(15.18 4.45) rotate(-11.02)"/>
              <rect class="cls-16" x="10.07" y="48.49" width="3.28" height="1.26" transform="translate(14.79 3.14) rotate(-11.02)"/>
            </g>
            <g>
              <g>
                <path class="cls-19" d="M62.93,28.87a22.21,22.21,0,1,1-30-9.19,22.22,22.22,0,0,1,30,9.19Z" transform="translate(23.97)"/>
                <path class="cls-24" d="M59.05,30.93a17.85,17.85,0,1,1-17.43-9.36A17.82,17.82,0,0,1,59.05,30.93Z" transform="translate(23.97)"/>
                <path class="cls-20" d="M57,32a15.48,15.48,0,1,1-15.14-8.14A15.47,15.47,0,0,1,57,32Z" transform="translate(23.97)"/>
              </g>
              <g>
                <path class="cls-26" d="M56.16,32.47a14.56,14.56,0,1,1-14.22-7.64A14.54,14.54,0,0,1,56.16,32.47Z" transform="translate(23.97)"/>
                <path class="cls-27" d="M52.09,32.28a14.54,14.54,0,0,1-11.47,21.3,14.53,14.53,0,0,1,1.32-28.75A14.49,14.49,0,0,1,52.09,32.28Z" transform="translate(23.97)"/>
                <path class="cls-28" d="M51.05,47.73c-1.91,1-1.65.78-3.15,2.75S45,52.41,43.25,53.35c-.27.14-.58.29-.91.43A14.48,14.48,0,0,0,57,44.13l-1.1,1C54.08,46.81,53,46.72,51.05,47.73ZM39.78,41.48c2.15-2.23,4.31-2.59,6.64-3.73a32.33,32.33,0,0,0,7.16-4.59,24.38,24.38,0,0,0,1.89-1.84,14.57,14.57,0,0,0-5.12-4.74c-1,1-2.17,2.05-3.32,3.1-2,1.87-4,1.92-5.7,2.74a8.92,8.92,0,0,0-3.71,3.15,32.93,32.93,0,0,1-5.1,5.16,15,15,0,0,1-3.28,2.15,14.45,14.45,0,0,0,1.25,3.24,14.08,14.08,0,0,0,1.16,1.82,15.76,15.76,0,0,0,2.31-1C36.44,45.51,37.63,43.7,39.78,41.48Zm9.84.25a10.33,10.33,0,0,0-6.45,5.2s-4.38,2.82-6.48,4a10.07,10.07,0,0,1-1.19.58,13.9,13.9,0,0,0,3.16,1.51,40.81,40.81,0,0,0,6.27-3.92c2-1.76,3.28-3.22,4.58-4.11s3.78-1.91,6.41-3.41a17.46,17.46,0,0,0,1.89-1.21,14,14,0,0,0-.24-4l-1,1.23S52,41.05,49.62,41.73Zm2.7-4.87c-2.39,2-4.93,2.53-6.69,3.27a11.59,11.59,0,0,0-3.53,2.95s-3.8,4.08-6.52,5.43a15.19,15.19,0,0,1-2.64,1,11.91,11.91,0,0,0,.91.84c.32-.09.62-.18.88-.27a18.21,18.21,0,0,0,5.1-3.49c1.74-1.52,3-3.68,4.29-4.83s2.2-.49,3.54-.91a16.09,16.09,0,0,0,4.54-2.7c1-.83,3.1-2.43,4.75-3.87-.14-.36-.28-.72-.45-1.07C55.34,34.25,53.69,35.74,52.32,36.86ZM31.76,31.92c1.9-1.4,3.05-1.81,3.85-2.53s1.37-.73,3-1.9A7.34,7.34,0,0,0,40.51,25a15.2,15.2,0,0,0-1.84.5l-.25.3c-1.21,1.23-3.16,2.16-4.34,3.08a23.28,23.28,0,0,1-2.42,1.7,14.77,14.77,0,0,0-1.3,2.11A7.14,7.14,0,0,0,31.76,31.92Zm2.55,4.43c2.08-1.79,2.55-3.32,3.95-4.55s2.64-1.11,4.55-2.13A12.43,12.43,0,0,0,48,25.55a14.71,14.71,0,0,0-3.73-.75A21.23,21.23,0,0,1,42.67,27c-3,3.55-2.71,1.73-4.71,3.67a39.81,39.81,0,0,1-5.61,4.56,30.84,30.84,0,0,1-3.43,2.14,13.83,13.83,0,0,0-.12,2.32A28.92,28.92,0,0,0,34.31,36.35Z" transform="translate(23.97)"/>
                <path class="cls-25" d="M65.11,21.38c-1.22-1.44-6.66,1-13.66,5.86.28.19.55.39.82.6,4.78-3.38,8.24-5.18,8.87-4.43s-1.65,3.8-5.67,7.91c-2.65,2.71-6,5.86-9.86,9.11a141.62,141.62,0,0,1-12.27,9.42c-3.82,2.55-6.48,3.81-7,3.16s1.17-3.14,4.37-6.55c-.07-.11-.13-.23-.19-.34s-.18-.36-.27-.54c-5,5.42-7.68,9.7-6.56,11s5.9-.69,12.17-4.85a126.2,126.2,0,0,0,11.78-9c3.49-3,6.65-5.92,9.3-8.65C63,27.91,66.35,22.83,65.11,21.38Z" transform="translate(23.97)"/>
              </g>
            </g>
          </g>
        </g>
      </g>
    </g>
  </g>
</svg>
